<svg xmlns="http://www.w3.org/2000/svg" width="120" height="120" viewBox="0 0 120 120">
  <defs>
    <linearGradient id="sky" x1="0" y1="0" x2="0" y2="1">
      <stop offset="0%" stop-color="#ffffff"/>
      <stop offset="100%" stop-color="#d6f4fc"/>
    </linearGradient>
    <linearGradient id="castle" x1="0" y1="0" x2="1" y2="1">
      <stop offset="0%" stop-color="#e6c070"/>
      <stop offset="100%" stop-color="#c79f55"/>
    </linearGradient>
    <linearGradient id="wave" x1="0" y1="0" x2="1" y2="0">
      <stop offset="0%" stop-color="#0f766e"/>
      <stop offset="100%" stop-color="#0ea5a4"/>
    </linearGradient>
  </defs>

  <rect width="120" height="120" rx="20" fill="url(#sky)"/>
  <path d="M16 88 C 32 72, 48 84, 64 72 C 80 60, 96 82, 104 74" fill="none" stroke="url(#wave)" stroke-width="9" stroke-linecap="round"/>
  <path d="M12 94 C 28 78, 40 90, 60 80 C 80 70, 92 88, 108 78" fill="none" stroke="url(#wave)" stroke-width="6" stroke-linecap="round" opacity="0.75"/>

  <g fill="url(#castle)">
    <rect x="30" y="38" width="18" height="26" rx="2"/>
    <rect x="48" y="30" width="16" height="34" rx="2"/>
    <rect x="66" y="42" width="18" height="22" rx="2"/>
    <path d="M26 38 L26 28 L33 28 L33 34 L40 28 L47 34 L54 28 L61 34 L68 28 L75 34 L82 28 L82 38 Z"/>
    <path d="M42 56 H74 V70 H42 Z" opacity="0.85"/>
    <path d="M36 64 H80 V76 H36 Z" opacity="0.65"/>
    <circle cx="52" cy="56" r="3" fill="#fff" opacity="0.8"/>
    <circle cx="68" cy="56" r="3" fill="#fff" opacity="0.8"/>
  </g>

  <text x="50%" y="106" font-size="13" fill="#0f766e" font-family="Inter, Arial, sans-serif" font-weight="700" text-anchor="middle">SANDCASTLE</text>
</svg>