<svg xmlns="http://www.w3.org/2000/svg" viewBox="0 0 600 400">
  <defs>
    <linearGradient id="sky7" x1="0" y1="0" x2="0" y2="1">
      <stop offset="0%" stop-color="#1e1b4b"/>
      <stop offset="35%" stop-color="#4c1d95"/>
      <stop offset="62%" stop-color="#be185d"/>
      <stop offset="82%" stop-color="#f97316"/>
      <stop offset="100%" stop-color="#fef3c7"/>
    </linearGradient>
    <linearGradient id="floor7" x1="0" y1="0" x2="0" y2="1">
      <stop offset="0%" stop-color="#e7d5c8"/>
      <stop offset="100%" stop-color="#c9b5a4"/>
    </linearGradient>
  </defs>
  <!-- Sky -->
  <rect width="600" height="280" fill="url(#sky7)"/>
  <!-- Stars -->
  <circle cx="40"  cy="18" r="1.2" fill="white" opacity="0.75"/>
  <circle cx="118" cy="32" r="1"   fill="white" opacity="0.6"/>
  <circle cx="185" cy="12" r="1.4" fill="white" opacity="0.7"/>
  <circle cx="65"  cy="50" r="1"   fill="white" opacity="0.5"/>
  <circle cx="250" cy="25" r="1.2" fill="white" opacity="0.6"/>
  <circle cx="420" cy="20" r="1"   fill="white" opacity="0.55"/>
  <circle cx="530" cy="35" r="1.3" fill="white" opacity="0.65"/>
  <!-- Arch structure -->
  <path d="M170,280 L170,180 Q300,100 430,180 L430,280Z" fill="#f1e8d8" opacity="0.95"/>
  <path d="M190,280 L190,192 Q300,118 410,192 L410,280Z" fill="#e8d5c8" opacity="0.95"/>
  <!-- Arch keystone -->
  <ellipse cx="300" cy="128" rx="22" ry="14" fill="#d4c4a8"/>
  <!-- Climbing roses on arch -->
  <path d="M170,280 Q165,230 175,190" stroke="#16a34a" stroke-width="3" fill="none"/>
  <circle cx="168" cy="265" r="6" fill="#f43f5e" opacity="0.9"/>
  <circle cx="172" cy="240" r="5" fill="#fb7185" opacity="0.85"/>
  <circle cx="176" cy="210" r="6" fill="#f43f5e" opacity="0.9"/>
  <circle cx="180" cy="182" r="5" fill="#fb7185" opacity="0.85"/>
  <path d="M430,280 Q435,230 425,190" stroke="#16a34a" stroke-width="3" fill="none"/>
  <circle cx="432" cy="265" r="6" fill="#f43f5e" opacity="0.9"/>
  <circle cx="428" cy="240" r="5" fill="#fb7185" opacity="0.85"/>
  <circle cx="424" cy="210" r="6" fill="#f43f5e" opacity="0.9"/>
  <circle cx="420" cy="182" r="5" fill="#fb7185" opacity="0.85"/>
  <!-- Arch top rose -->
  <circle cx="300" cy="110" r="8" fill="#f43f5e" opacity="0.9"/>
  <circle cx="300" cy="110" r="4" fill="#fbbf24"/>
  <!-- Courtyard floor -->
  <rect y="278" width="600" height="122" fill="url(#floor7)"/>
  <!-- Floor tiles -->
  <line x1="0" y1="300" x2="600" y2="300" stroke="#b8a090" stroke-width="1"/>
  <line x1="0" y1="322" x2="600" y2="322" stroke="#b8a090" stroke-width="1"/>
  <line x1="0" y1="344" x2="600" y2="344" stroke="#b8a090" stroke-width="1"/>
  <line x1="0" y1="366" x2="600" y2="366" stroke="#b8a090" stroke-width="1"/>
  <line x1="0" y1="388" x2="600" y2="388" stroke="#b8a090" stroke-width="1"/>
  <line x1="75"  y1="278" x2="75"  y2="400" stroke="#b8a090" stroke-width="1"/>
  <line x1="150" y1="278" x2="150" y2="400" stroke="#b8a090" stroke-width="1"/>
  <line x1="225" y1="278" x2="225" y2="400" stroke="#b8a090" stroke-width="1"/>
  <line x1="300" y1="278" x2="300" y2="400" stroke="#b8a090" stroke-width="1"/>
  <line x1="375" y1="278" x2="375" y2="400" stroke="#b8a090" stroke-width="1"/>
  <line x1="450" y1="278" x2="450" y2="400" stroke="#b8a090" stroke-width="1"/>
  <line x1="525" y1="278" x2="525" y2="400" stroke="#b8a090" stroke-width="1"/>
  <!-- Lanterns on arch -->
  <line x1="220" y1="148" x2="220" y2="176" stroke="#92400e" stroke-width="1.5"/>
  <rect x="212" y="174" width="16" height="22" fill="#fbbf24" rx="3" opacity="0.9"/>
  <line x1="380" y1="148" x2="380" y2="176" stroke="#92400e" stroke-width="1.5"/>
  <rect x="372" y="174" width="16" height="22" fill="#fbbf24" rx="3" opacity="0.9"/>
  <!-- Garden left -->
  <rect x="0" y="278" width="158" height="122" fill="#15803d" opacity="0.75"/>
  <ellipse cx="40" cy="280" rx="35" ry="14" fill="#16a34a" opacity="0.7"/>
  <ellipse cx="100" cy="278" rx="30" ry="13" fill="#14532d" opacity="0.7"/>
  <circle cx="22" cy="340" r="7" fill="#c084fc"/>
  <circle cx="22" cy="340" r="3.5" fill="#e9d5ff"/>
  <circle cx="50" cy="358" r="6" fill="#f472b6"/>
  <circle cx="80" cy="342" r="7" fill="#c084fc"/>
  <circle cx="110" cy="360" r="6" fill="#f472b6"/>
  <circle cx="135" cy="340" r="7" fill="#a78bfa"/>
  <!-- Garden right -->
  <rect x="442" y="278" width="158" height="122" fill="#15803d" opacity="0.75"/>
  <ellipse cx="480" cy="280" rx="30" ry="13" fill="#16a34a" opacity="0.7"/>
  <ellipse cx="540" cy="278" rx="35" ry="14" fill="#14532d" opacity="0.7"/>
  <circle cx="462" cy="340" r="7" fill="#f472b6"/>
  <circle cx="490" cy="358" r="6" fill="#c084fc"/>
  <circle cx="520" cy="340" r="7" fill="#f472b6"/>
  <circle cx="548" cy="355" r="6" fill="#a78bfa"/>
  <circle cx="572" cy="338" r="7" fill="#c084fc"/>
</svg>
