<svg xmlns="http://www.w3.org/2000/svg" viewBox="0 0 600 400">
  <defs>
    <linearGradient id="sky8" x1="0" y1="0" x2="0" y2="1">
      <stop offset="0%" stop-color="#1e3a5f"/>
      <stop offset="50%" stop-color="#2563eb"/>
      <stop offset="80%" stop-color="#7dd3fc"/>
      <stop offset="100%" stop-color="#e0f2fe"/>
    </linearGradient>
    <linearGradient id="garden8" x1="0" y1="0" x2="0" y2="1">
      <stop offset="0%" stop-color="#22c55e"/>
      <stop offset="100%" stop-color="#14532d"/>
    </linearGradient>
    <linearGradient id="deck8" x1="0" y1="0" x2="0" y2="1">
      <stop offset="0%" stop-color="#f7ede0"/>
      <stop offset="100%" stop-color="#e0cdb0"/>
    </linearGradient>
  </defs>
  <!-- Sky through balcony -->
  <rect width="600" height="220" fill="url(#sky8)"/>
  <!-- Birds -->
  <path d="M120,85 Q125,80 130,85" stroke="#1e3a5f" stroke-width="2" fill="none"/>
  <path d="M138,83 Q143,78 148,83" stroke="#1e3a5f" stroke-width="2" fill="none"/>
  <path d="M300,70 Q306,65 312,70" stroke="#1e3a5f" stroke-width="2" fill="none"/>
  <path d="M320,68 Q326,63 332,68" stroke="#1e3a5f" stroke-width="2" fill="none"/>
  <!-- Sun -->
  <circle cx="490" cy="75" r="38" fill="#fef9c3" opacity="0.82"/>
  <circle cx="490" cy="75" r="26" fill="#fef08a"/>
  <!-- Cloud -->
  <ellipse cx="165" cy="68" rx="78" ry="22" fill="white" opacity="0.85"/>
  <ellipse cx="210" cy="56" rx="56" ry="20" fill="white" opacity="0.9"/>
  <!-- Garden below balcony -->
  <rect y="218" width="600" height="90" fill="url(#garden8)"/>
  <!-- Tree tops visible -->
  <ellipse cx="80" cy="218" rx="55" ry="35" fill="#16a34a" opacity="0.9"/>
  <ellipse cx="175" cy="210" rx="48" ry="40" fill="#15803d" opacity="0.85"/>
  <ellipse cx="310" cy="215" rx="55" ry="32" fill="#22c55e" opacity="0.85"/>
  <ellipse cx="435" cy="212" rx="50" ry="38" fill="#15803d" opacity="0.9"/>
  <ellipse cx="535" cy="218" rx="55" ry="33" fill="#16a34a" opacity="0.85"/>
  <!-- Flowers in garden -->
  <circle cx="40"  cy="268" r="6" fill="#f43f5e"/>
  <circle cx="40"  cy="268" r="3" fill="#fbbf24"/>
  <circle cx="120" cy="275" r="6" fill="#fb923c"/>
  <circle cx="120" cy="275" r="3" fill="#fef08a"/>
  <circle cx="200" cy="265" r="6" fill="#f43f5e"/>
  <circle cx="200" cy="265" r="3" fill="#fbbf24"/>
  <circle cx="380" cy="272" r="6" fill="#fb923c"/>
  <circle cx="380" cy="272" r="3" fill="#fef08a"/>
  <circle cx="460" cy="263" r="6" fill="#c084fc"/>
  <circle cx="460" cy="263" r="3" fill="#e9d5ff"/>
  <circle cx="540" cy="270" r="6" fill="#f43f5e"/>
  <circle cx="540" cy="270" r="3" fill="#fbbf24"/>
  <!-- Balcony deck -->
  <rect y="305" width="600" height="48" fill="url(#deck8)"/>
  <line x1="0" y1="315" x2="600" y2="315" stroke="#d0bea0" stroke-width="1"/>
  <line x1="0" y1="327" x2="600" y2="327" stroke="#d0bea0" stroke-width="1"/>
  <line x1="0" y1="339" x2="600" y2="339" stroke="#d0bea0" stroke-width="1"/>
  <!-- Balcony railing -->
  <rect y="292" width="600" height="14" fill="#c5b49a" rx="4"/>
  <rect y="264" width="600" height="8" fill="#c5b49a" rx="3"/>
  <!-- Railing posts -->
  <rect x="8"   y="264" width="5" height="42" fill="#c5b49a" rx="2"/>
  <rect x="48"  y="264" width="5" height="42" fill="#c5b49a" rx="2"/>
  <rect x="88"  y="264" width="5" height="42" fill="#c5b49a" rx="2"/>
  <rect x="128" y="264" width="5" height="42" fill="#c5b49a" rx="2"/>
  <rect x="168" y="264" width="5" height="42" fill="#c5b49a" rx="2"/>
  <rect x="208" y="264" width="5" height="42" fill="#c5b49a" rx="2"/>
  <rect x="248" y="264" width="5" height="42" fill="#c5b49a" rx="2"/>
  <rect x="288" y="264" width="5" height="42" fill="#c5b49a" rx="2"/>
  <rect x="328" y="264" width="5" height="42" fill="#c5b49a" rx="2"/>
  <rect x="368" y="264" width="5" height="42" fill="#c5b49a" rx="2"/>
  <rect x="408" y="264" width="5" height="42" fill="#c5b49a" rx="2"/>
  <rect x="448" y="264" width="5" height="42" fill="#c5b49a" rx="2"/>
  <rect x="488" y="264" width="5" height="42" fill="#c5b49a" rx="2"/>
  <rect x="528" y="264" width="5" height="42" fill="#c5b49a" rx="2"/>
  <rect x="568" y="264" width="5" height="42" fill="#c5b49a" rx="2"/>
  <!-- Potted plant on balcony -->
  <rect x="560" y="290" width="14" height="16" fill="#b45309" rx="2"/>
  <ellipse cx="567" cy="289" rx="10" ry="4" fill="#92400e"/>
  <rect x="565" y="270" width="5" height="22" fill="#78350f" rx="2"/>
  <ellipse cx="567" cy="267" rx="14" ry="6" fill="#16a34a" transform="rotate(-5 567 267)"/>
  <ellipse cx="556" cy="274" rx="11" ry="4" fill="#15803d" transform="rotate(-35 556 274)"/>
  <ellipse cx="578" cy="274" rx="11" ry="4" fill="#15803d" transform="rotate(35 578 274)"/>
</svg>
