<svg xmlns="http://www.w3.org/2000/svg" viewBox="0 0 600 400">
  <defs>
    <linearGradient id="sky10" x1="0" y1="0" x2="0" y2="1">
      <stop offset="0%" stop-color="#0f0f1a"/>
      <stop offset="50%" stop-color="#1e3a5f"/>
      <stop offset="100%" stop-color="#1e4d8c"/>
    </linearGradient>
    <linearGradient id="pool10" x1="0" y1="0" x2="0" y2="1">
      <stop offset="0%" stop-color="#0e7490"/>
      <stop offset="40%" stop-color="#0891b2"/>
      <stop offset="100%" stop-color="#083344"/>
    </linearGradient>
    <linearGradient id="surr10" x1="0" y1="0" x2="0" y2="1">
      <stop offset="0%" stop-color="#292524"/>
      <stop offset="100%" stop-color="#1c1917"/>
    </linearGradient>
    <radialGradient id="glow10" cx="50%" cy="50%" r="50%">
      <stop offset="0%" stop-color="#22d3ee" stop-opacity="0.55"/>
      <stop offset="100%" stop-color="#22d3ee" stop-opacity="0"/>
    </radialGradient>
  </defs>
  <!-- Night sky -->
  <rect width="600" height="220" fill="url(#sky10)"/>
  <!-- Stars -->
  <circle cx="30"  cy="18"  r="1.5" fill="white" opacity="0.85"/>
  <circle cx="80"  cy="40"  r="1.2" fill="white" opacity="0.7"/>
  <circle cx="145" cy="22"  r="1"   fill="white" opacity="0.6"/>
  <circle cx="200" cy="50"  r="1.5" fill="white" opacity="0.75"/>
  <circle cx="265" cy="15"  r="1"   fill="white" opacity="0.65"/>
  <circle cx="330" cy="38"  r="1.3" fill="white" opacity="0.8"/>
  <circle cx="390" cy="20"  r="1.2" fill="white" opacity="0.7"/>
  <circle cx="445" cy="45"  r="1"   fill="white" opacity="0.6"/>
  <circle cx="510" cy="25"  r="1.5" fill="white" opacity="0.8"/>
  <circle cx="565" cy="42"  r="1.2" fill="white" opacity="0.7"/>
  <circle cx="55"  cy="70"  r="1"   fill="white" opacity="0.55"/>
  <circle cx="160" cy="80"  r="1.3" fill="white" opacity="0.65"/>
  <circle cx="290" cy="65"  r="1"   fill="white" opacity="0.6"/>
  <circle cx="440" cy="78"  r="1.2" fill="white" opacity="0.65"/>
  <circle cx="540" cy="65"  r="1"   fill="white" opacity="0.55"/>
  <!-- Building outline -->
  <rect x="0" y="130" width="600" height="92" fill="#1c1a18"/>
  <!-- Building windows (lit) -->
  <rect x="20"  y="148" width="35" height="28" fill="#fbbf24" rx="2" opacity="0.85"/>
  <rect x="75"  y="148" width="35" height="28" fill="#fef08a" rx="2" opacity="0.8"/>
  <rect x="130" y="148" width="35" height="28" fill="#fbbf24" rx="2" opacity="0.9"/>
  <rect x="185" y="158" width="35" height="18" fill="#93c5fd" rx="2" opacity="0.7"/>
  <rect x="350" y="148" width="35" height="28" fill="#fef08a" rx="2" opacity="0.85"/>
  <rect x="405" y="148" width="35" height="28" fill="#fbbf24" rx="2" opacity="0.8"/>
  <rect x="460" y="148" width="35" height="28" fill="#fef08a" rx="2" opacity="0.9"/>
  <rect x="515" y="158" width="35" height="18" fill="#93c5fd" rx="2" opacity="0.7"/>
  <!-- Pool surround -->
  <rect y="220" width="600" height="180" fill="url(#surr10)"/>
  <!-- Pool -->
  <rect x="55" y="228" width="490" height="148" fill="url(#pool10)" rx="10"/>
  <!-- Pool underwater glow -->
  <ellipse cx="300" cy="302" rx="220" ry="60" fill="url(#glow10)"/>
  <!-- Individual pool lights -->
  <ellipse cx="130" cy="360" rx="30" ry="10" fill="#22d3ee" opacity="0.5"/>
  <ellipse cx="300" cy="368" rx="30" ry="10" fill="#22d3ee" opacity="0.5"/>
  <ellipse cx="470" cy="360" rx="30" ry="10" fill="#22d3ee" opacity="0.5"/>
  <!-- Pool surface ripple shimmer -->
  <path d="M80,248  Q130,242 185,248 Q240,254 295,248" stroke="#67e8f9" stroke-width="1.5" fill="none" opacity="0.3"/>
  <path d="M310,268 Q365,262 420,268 Q475,274 530,268" stroke="#67e8f9" stroke-width="1.5" fill="none" opacity="0.25"/>
  <path d="M80,300  Q160,294 240,300 Q320,306 400,300" stroke="#22d3ee" stroke-width="1.5" fill="none" opacity="0.2"/>
  <!-- Pool reflection of building lights -->
  <ellipse cx="52"  cy="255" rx="18" ry="5" fill="#fbbf24" opacity="0.2"/>
  <ellipse cx="110" cy="258" rx="18" ry="5" fill="#fef08a" opacity="0.18"/>
  <ellipse cx="168" cy="255" rx="18" ry="5" fill="#fbbf24" opacity="0.2"/>
  <ellipse cx="385" cy="255" rx="18" ry="5" fill="#fef08a" opacity="0.2"/>
  <ellipse cx="443" cy="258" rx="18" ry="5" fill="#fbbf24" opacity="0.18"/>
  <ellipse cx="501" cy="255" rx="18" ry="5" fill="#fef08a" opacity="0.2"/>
  <!-- Pool edge -->
  <rect x="55" y="228" width="490" height="148" fill="none" stroke="#0e7490" stroke-width="3" rx="10"/>
  <!-- Lounge chairs (silhouette) -->
  <rect x="4"   y="305" width="44" height="14" fill="#44403c" rx="3"/>
  <rect x="4"   y="294" width="16" height="13" fill="#44403c" rx="3"/>
  <rect x="552" y="305" width="44" height="14" fill="#44403c" rx="3"/>
  <rect x="552" y="294" width="16" height="13" fill="#44403c" rx="3"/>
  <!-- String lights across scene -->
  <path d="M0,218 Q150,226 300,220 Q450,214 600,218" stroke="#fef08a" stroke-width="1.5" fill="none" opacity="0.6"/>
  <circle cx="0"   cy="218" r="3" fill="#fef08a" opacity="0.8"/>
  <circle cx="55"  cy="224" r="3" fill="#fef08a" opacity="0.8"/>
  <circle cx="110" cy="226" r="3" fill="#fef08a" opacity="0.8"/>
  <circle cx="165" cy="223" r="3" fill="#fef08a" opacity="0.8"/>
  <circle cx="220" cy="220" r="3" fill="#fef08a" opacity="0.8"/>
  <circle cx="300" cy="220" r="3" fill="#fef08a" opacity="0.8"/>
  <circle cx="380" cy="216" r="3" fill="#fef08a" opacity="0.8"/>
  <circle cx="435" cy="216" r="3" fill="#fef08a" opacity="0.8"/>
  <circle cx="490" cy="218" r="3" fill="#fef08a" opacity="0.8"/>
  <circle cx="545" cy="217" r="3" fill="#fef08a" opacity="0.8"/>
  <circle cx="600" cy="218" r="3" fill="#fef08a" opacity="0.8"/>
</svg>
