<svg xmlns="http://www.w3.org/2000/svg" viewBox="0 0 600 400">
  <defs>
    <linearGradient id="sky13" x1="0" y1="0" x2="0" y2="1">
      <stop offset="0%" stop-color="#050d1a"/>
      <stop offset="25%" stop-color="#0f2850"/>
      <stop offset="50%" stop-color="#7c1d6f"/>
      <stop offset="70%" stop-color="#ea580c"/>
      <stop offset="85%" stop-color="#f59e0b"/>
      <stop offset="100%" stop-color="#fef3c7"/>
    </linearGradient>
    <linearGradient id="ocean13" x1="0" y1="0" x2="0" y2="1">
      <stop offset="0%" stop-color="#1a6fa0"/>
      <stop offset="100%" stop-color="#071e30"/>
    </linearGradient>
    <linearGradient id="beach13" x1="0" y1="0" x2="0" y2="1">
      <stop offset="0%" stop-color="#fef3c7"/>
      <stop offset="100%" stop-color="#f59e0b"/>
    </linearGradient>
  </defs>
  <!-- Sky -->
  <rect width="600" height="285" fill="url(#sky13)"/>
  <!-- Stars - more visible in deep sky -->
  <circle cx="40"  cy="18"  r="1.5" fill="white" opacity="0.9"/>
  <circle cx="90"  cy="8"   r="1.2" fill="white" opacity="0.8"/>
  <circle cx="155" cy="25"  r="1.5" fill="white" opacity="0.85"/>
  <circle cx="210" cy="10"  r="1"   fill="white" opacity="0.75"/>
  <circle cx="265" cy="32"  r="1.3" fill="white" opacity="0.8"/>
  <circle cx="355" cy="12"  r="1.5" fill="white" opacity="0.85"/>
  <circle cx="415" cy="28"  r="1"   fill="white" opacity="0.7"/>
  <circle cx="470" cy="8"   r="1.4" fill="white" opacity="0.8"/>
  <circle cx="525" cy="22"  r="1.2" fill="white" opacity="0.75"/>
  <circle cx="572" cy="40"  r="1"   fill="white" opacity="0.7"/>
  <circle cx="70"  cy="52"  r="1"   fill="white" opacity="0.6"/>
  <circle cx="180" cy="60"  r="1.2" fill="white" opacity="0.65"/>
  <circle cx="310" cy="48"  r="1"   fill="white" opacity="0.65"/>
  <circle cx="440" cy="55"  r="1.3" fill="white" opacity="0.6"/>
  <circle cx="550" cy="60"  r="1"   fill="white" opacity="0.6"/>
  <!-- Venus / bright planet -->
  <circle cx="130" cy="85"  r="3"   fill="white" opacity="0.9"/>
  <circle cx="130" cy="85"  r="1.5" fill="#fef9c3"/>
  <!-- Grand sun setting -->
  <circle cx="300" cy="282" r="90" fill="#ea580c" opacity="0.18"/>
  <circle cx="300" cy="282" r="65" fill="#f59e0b" opacity="0.3"/>
  <circle cx="300" cy="282" r="42" fill="#fcd34d" opacity="0.65"/>
  <circle cx="300" cy="282" r="26" fill="#fef9c3" opacity="0.95"/>
  <!-- Dramatic colour bands -->
  <ellipse cx="300" cy="283" rx="300" ry="28" fill="#ea580c" opacity="0.18"/>
  <ellipse cx="300" cy="283" rx="300" ry="16" fill="#f59e0b" opacity="0.12"/>
  <!-- Ocean -->
  <rect y="252" width="600" height="100" fill="url(#ocean13)"/>
  <!-- Sun trail on ocean (wide) -->
  <path d="M205,262 Q255,255 300,265 Q345,272 395,262 L395,280 Q345,290 300,285 Q255,275 205,280Z" fill="#fcd34d" opacity="0.3"/>
  <!-- Waves layered -->
  <path d="M0,262 C60,254 140,272 220,262 C300,252 380,270 460,262 C520,255 562,265 600,262 L600,274 L0,274Z" fill="#38bdf8" opacity="0.5"/>
  <path d="M0,283 C70,275 155,293 240,283 C325,273 410,291 495,283 C548,277 576,286 600,283 L600,297 L0,297Z" fill="#0ea5e9" opacity="0.38"/>
  <path d="M0,310 C80,302 165,320 250,310 C335,300 420,318 505,310 C556,304 580,312 600,310 L600,326 L0,326Z" fill="#0369a1" opacity="0.28"/>
  <!-- Beach strip -->
  <rect y="347" width="600" height="53" fill="url(#beach13)"/>
  <path d="M0,347 C90,342 200,352 300,347 C400,342 510,352 600,347 L600,355 L0,355Z" fill="white" opacity="0.5"/>
  <!-- Multiple sailboats -->
  <path d="M88"  cy="245" r="0" fill="none"/>
  <path d="M80,248 L92,230 L100,248Z" fill="#0c3d5e" opacity="0.55"/>
  <line x1="92" y1="248" x2="92" y2="230" stroke="#0c3d5e" stroke-width="1.5" opacity="0.55"/>
  <path d="M220,242 L232,226 L240,242Z" fill="#0c3d5e" opacity="0.5"/>
  <line x1="232" y1="242" x2="232" y2="226" stroke="#0c3d5e" stroke-width="1.5" opacity="0.5"/>
  <path d="M380,245 L390,230 L398,245Z" fill="#0c3d5e" opacity="0.55"/>
  <line x1="390" y1="245" x2="390" y2="230" stroke="#0c3d5e" stroke-width="1.5" opacity="0.55"/>
  <path d="M490,240 L502,222 L510,240Z" fill="#0c3d5e" opacity="0.5"/>
  <line x1="502" y1="240" x2="502" y2="222" stroke="#0c3d5e" stroke-width="1.5" opacity="0.5"/>
  <!-- Three large palms -->
  <!-- Palm far left -->
  <rect x="5"  y="90" width="14" height="218" fill="#5c330a" rx="5"/>
  <ellipse cx="12" cy="80"  rx="44" ry="17" fill="#22c55e" transform="rotate(-6 12 80)"/>
  <ellipse cx="-18" cy="96" rx="38" ry="13" fill="#16a34a" transform="rotate(-44 -18 96)"/>
  <ellipse cx="44" cy="96"  rx="38" ry="13" fill="#16a34a" transform="rotate(40 44 96)"/>
  <ellipse cx="-4" cy="70"  rx="30" ry="11" fill="#4ade80" transform="rotate(-62 -4 70)"/>
  <ellipse cx="28" cy="70"  rx="30" ry="11" fill="#4ade80" transform="rotate(58 28 70)"/>
  <ellipse cx="12" cy="62"  rx="24" ry="9"  fill="#86efac" transform="rotate(-12 12 62)"/>
  <!-- Palm center-left -->
  <rect x="150" y="120" width="12" height="185" fill="#5c330a" rx="4"/>
  <ellipse cx="156" cy="112" rx="38" ry="15" fill="#22c55e" transform="rotate(-4 156 112)"/>
  <ellipse cx="130" cy="126" rx="34" ry="11" fill="#16a34a" transform="rotate(-40 130 126)"/>
  <ellipse cx="184" cy="126" rx="34" ry="11" fill="#16a34a" transform="rotate(36 184 126)"/>
  <ellipse cx="138" cy="104" rx="26" ry="9"  fill="#4ade80" transform="rotate(-58 138 104)"/>
  <ellipse cx="174" cy="104" rx="26" ry="9"  fill="#4ade80" transform="rotate(54 174 104)"/>
  <!-- Palm far right -->
  <rect x="581" y="90" width="14" height="218" fill="#5c330a" rx="5"/>
  <ellipse cx="588" cy="80"  rx="44" ry="17" fill="#22c55e" transform="rotate(6 588 80)"/>
  <ellipse cx="556" cy="96"  rx="38" ry="13" fill="#16a34a" transform="rotate(-40 556 96)"/>
  <ellipse cx="620" cy="96"  rx="38" ry="13" fill="#16a34a" transform="rotate(44 620 96)"/>
  <ellipse cx="572" cy="70"  rx="30" ry="11" fill="#4ade80" transform="rotate(-58 572 70)"/>
  <ellipse cx="604" cy="70"  rx="30" ry="11" fill="#4ade80" transform="rotate(62 604 70)"/>
  <ellipse cx="588" cy="62"  rx="24" ry="9"  fill="#86efac" transform="rotate(12 588 62)"/>
  <!-- Palm center-right -->
  <rect x="438" y="120" width="12" height="185" fill="#5c330a" rx="4"/>
  <ellipse cx="444" cy="112" rx="38" ry="15" fill="#22c55e" transform="rotate(4 444 112)"/>
  <ellipse cx="416" cy="126" rx="34" ry="11" fill="#16a34a" transform="rotate(-36 416 126)"/>
  <ellipse cx="472" cy="126" rx="34" ry="11" fill="#16a34a" transform="rotate(40 472 126)"/>
  <ellipse cx="426" cy="104" rx="26" ry="9"  fill="#4ade80" transform="rotate(-54 426 104)"/>
  <ellipse cx="462" cy="104" rx="26" ry="9"  fill="#4ade80" transform="rotate(58 462 104)"/>
</svg>
